<svg width="22" height="22" viewBox="0 0 16 22" fill="none" xmlns="http://www.w3.org/2000/svg">
<path d="M13.3086 9.69714C14.2686 8.69714 14.8571 7.34571 14.8571 5.86V5.56857C14.8571 2.49429 12.34 0 9.23714 0H0.782857C0.351428 0 0 0.351428 0 0.782857V20.1857C0 20.6514 0.377143 21.0286 0.842857 21.0286H9.94857C13.2914 21.0286 16 18.3371 16 15.0143V14.7C16 12.6143 14.9314 10.7771 13.3086 9.69714ZM2.74286 2.74286H9.16286C10.7943 2.74286 12.1143 4.01143 12.1143 5.58V5.85143C12.1143 7.41714 10.7914 8.68857 9.16286 8.68857H2.74286V2.74286ZM13.2171 15.0114C13.2171 16.8086 11.74 18.2657 9.91714 18.2657H2.74286V11.4486H9.91714C11.74 11.4486 13.2171 12.9057 13.2171 14.7029V15.0114Z" fill="black"/>
</svg>
