<svg width="22" height="22" viewBox="0 0 22 22" fill="none" xmlns="http://www.w3.org/2000/svg">
<path d="M1 3.00909L3.55889 17.1491C3.69144 17.8817 4.04588 18.5667 4.58288 19.1283C5.11988 19.6899 5.81846 20.106 6.60111 20.3305L6.96556 20.4349C9.59063 21.1884 12.4094 21.1884 15.0344 20.4349L15.3989 20.3305C16.1814 20.1061 16.8799 19.6901 17.4169 19.1287C17.9538 18.5674 18.3084 17.8825 18.4411 17.1501L21 3.00909" stroke="black" stroke-width="2" stroke-linecap="round" stroke-linejoin="round"/>
<path d="M11 5.01818C16.5228 5.01818 21 4.11868 21 3.00909C21 1.8995 16.5228 1 11 1C5.47715 1 1 1.8995 1 3.00909C1 4.11868 5.47715 5.01818 11 5.01818Z" stroke="black" stroke-width="2" stroke-linecap="round" stroke-linejoin="round"/>
</svg>
