<svg width="22" height="22" viewBox="0 0 22 22" fill="none" xmlns="http://www.w3.org/2000/svg">
<path d="M15.6754 3.83277L18.1672 6.32338L15.6754 3.83277ZM-nan -nanL17.2778 1.63863L10.5401 8.37634C10.192 8.72399 9.95452 9.16692 9.85773 9.6493V9.6493C9.56165 11.1314 10.8687 12.4377 12.3507 12.1411V12.1411C12.8331 12.0446 13.2754 11.8081 13.6236 11.4599L20.3614 4.72219C20.5638 4.51972 20.7244 4.27935 20.834 4.01481C20.9436 3.75027 21 3.46674 21 3.18041C21 2.89407 20.9436 2.61054 20.834 2.346C20.7244 2.08146 20.5638 1.8411 20.3614 1.63863C20.1589 1.43616 19.9185 1.27555 19.654 1.16597C19.3894 1.0564 19.1059 1 18.8196 1C18.5332 1 18.2497 1.0564 17.9852 1.16597C17.7206 1.27555 17.4803 1.43616 17.2778 1.63863L-nan -nanL-nan -nanZ" stroke="black" stroke-width="2" stroke-linecap="round" stroke-linejoin="round"/>
<path d="M18.6472 15.1176V18.6471C18.6472 19.2711 18.3993 19.8696 17.9581 20.3109C17.5168 20.7521 16.9183 21 16.2943 21H3.35297C2.72892 21 2.13043 20.7521 1.68917 20.3109C1.2479 19.8696 1 19.2711 1 18.6471V5.70575C1 5.0817 1.2479 4.48322 1.68917 4.04195C2.13043 3.60068 2.72892 3.35278 3.35297 3.35278H6.88241" stroke="black" stroke-width="2" stroke-linecap="round" stroke-linejoin="round"/>
</svg>
