<svg width="20" height="20" viewBox="0 0 16 20" fill="none" xmlns="http://www.w3.org/2000/svg">
<path d="M15.7812 0H3.96581C3.84547 0 3.74701 0.0984615 3.74701 0.218803V1.96923C3.74701 2.08957 3.84547 2.18803 3.96581 2.18803H8.92171L4.65504 17.0667H0.218803C0.0984615 17.0667 0 17.1651 0 17.2855V19.0359C0 19.1562 0.0984615 19.2547 0.218803 19.2547H12.0342C12.1545 19.2547 12.253 19.1562 12.253 19.0359V17.2855C12.253 17.1651 12.1545 17.0667 12.0342 17.0667H6.9306L11.1973 2.18803H15.7812C15.9015 2.18803 16 2.08957 16 1.96923V0.218803C16 0.0984615 15.9015 0 15.7812 0Z" fill="black"/>
</svg>
