<svg width="20" height="20" viewBox="0 0 16 19" fill="none" xmlns="http://www.w3.org/2000/svg">
<path d="M15.8 16.5H0.2C0.09 16.5 0 16.585 0 16.69V18.21C0 18.315 0.09 18.4 0.2 18.4H15.8C15.91 18.4 16 18.315 16 18.21V16.69C16 16.585 15.91 16.5 15.8 16.5ZM8 14.6C9.735 14.6 11.365 13.9225 12.595 12.695C13.825 11.4675 14.5 9.835 14.5 8.1V0.3C14.5 0.135 14.365 0 14.2 0H12.7C12.535 0 12.4 0.135 12.4 0.3V8.1C12.4 10.525 10.425 12.5 8 12.5C5.575 12.5 3.6 10.525 3.6 8.1V0.3C3.6 0.135 3.465 0 3.3 0H1.8C1.635 0 1.5 0.135 1.5 0.3V8.1C1.5 9.835 2.1775 11.465 3.405 12.695C4.6325 13.925 6.265 14.6 8 14.6Z" fill="black"/>
</svg>
